Coordinates
version=1
nRows=35
nColumns=38
inDegrees=no

Units are S.I. units (second, meters, Newtons, ...)
If the header above contains a line with 'inDegrees', this indicates whether rotational values are in degrees (yes) or radians (no).

endheader
time	pelvis_tilt	pelvis_list	pelvis_rotation	pelvis_tx	pelvis_ty	pelvis_tz	hip_flexion_r	hip_adduction_r	hip_rotation_r	knee_angle_r	ankle_angle_r	subtalar_angle_r	mtp_angle_r	hip_flexion_l	hip_adduction_l	hip_rotation_l	knee_angle_l	ankle_angle_l	subtalar_angle_l	mtp_angle_l	lumbar_extension	lumbar_bending	lumbar_rotation	arm_flex_r	arm_add_r	arm_rot_r	elbow_flex_r	pro_sup_r	wrist_flex_r	wrist_dev_r	arm_flex_l	arm_add_l	arm_rot_l	elbow_flex_l	pro_sup_l	wrist_flex_l	wrist_dev_l
93.6	3.11866	0.875821	-1.54201	0.661427	0.202825	0.53683	0.57293	-0.548124	0.000860512	2.0944	0.523599	0	0	0.6555	-0.584147	0.0145462	2.0944	0.473941	0	0	-1.5708	-0.0114227	0.0223126	1.17147	-0.640854	0.065852	1.33656	1.40869	0	0	1.12627	-0.340658	-0.0885599	1.55757	1.56572	0	0
93.61	3.11997	0.87297	-1.54327	0.66118	0.201493	0.537333	0.572347	-0.547471	0.000682105	2.0944	0.523599	0	0	0.653479	-0.583438	0.0129536	2.0944	0.472746	0	0	-1.5708	-0.0128909	0.0204743	1.17707	-0.637376	0.0677824	1.32335	1.42514	0	0	1.1304	-0.342959	-0.0723958	1.54632	1.49123	0	0
93.62	3.12208	0.868506	-1.54572	0.661741	0.200302	0.538045	0.568546	-0.547185	0.000788042	2.0944	0.523599	0	0	0.647607	-0.583196	0.0104091	2.0944	0.470655	0	0	-1.5708	-0.01501	0.0185981	1.18103	-0.63259	0.0671568	1.30992	1.44208	0	0	1.13502	-0.344327	-0.0559548	1.53109	1.41931	0	0
93.63	3.12341	0.863735	-1.54773	0.666194	0.195497	0.547858	0.564132	-0.546692	0.000399695	2.0944	0.523599	0	0	0.642045	-0.582973	0.00829456	2.0944	0.467186	0	0	-1.5708	-0.0160043	0.0155705	1.18371	-0.634205	0.123488	1.30846	1.1711	0	0	1.14142	-0.339717	-0.085037	1.51328	1.5708	0	0
93.64	3.1244	0.872414	-1.54715	0.662164	0.196497	0.541116	0.579381	-0.541244	-0.00513738	2.0944	0.523599	0	0	0.660307	-0.576436	0.0093442	2.0944	0.467165	0	0	-1.5708	-0.0173924	0.0144313	1.19203	-0.631626	0.128914	1.29765	1.17352	0	0	1.15184	-0.34222	-0.0761619	1.50018	1.5708	0	0
93.65	3.13122	0.8633	-1.55293	0.666221	0.166911	0.615144	0.574899	-0.543726	-0.00311213	2.0944	0.523599	0	0	0.65512	-0.576177	0.00756192	2.0944	0.461896	0	0	-1.56252	-0.0201463	0.00977026	1.1956	-0.625443	0.12879	1.28353	1.17612	0	0	1.15823	-0.344419	-0.0683285	1.48514	1.5708	0	0
93.66	-3.13694	0.87026	-1.56264	0.607904	0.203535	0.553601	0.579853	-0.538095	-0.00897963	2.0944	0.523599	0	0	0.662978	-0.574234	0.00530724	2.0944	0.455586	0	0	-1.56391	-0.0285651	0.00833561	1.19776	-0.615806	0.131283	1.26772	1.18007	0	0	1.16088	-0.347217	-0.0602033	1.47051	1.57077	0	0
93.67	3.13008	0.886322	-1.55191	0.681338	0.191205	0.544937	0.591432	-0.540366	-0.00796908	2.0944	0.523599	0	0	0.671995	-0.56859	-0.000719633	2.0944	0.446836	0	0	-1.55181	-0.0219497	0.00205206	1.19798	-0.609608	0.132852	1.25135	1.18556	0	0	1.16249	-0.347677	-0.0519103	1.4584	1.5708	0	0
93.68	3.13518	0.901082	-1.55369	0.661594	0.193884	0.549306	0.60794	-0.537395	-0.0107723	2.0944	0.523599	0	0	0.692148	-0.567468	0.000144883	2.0944	0.439385	0	0	-1.53413	-0.0241724	0.000364626	1.19848	-0.602201	0.135783	1.23674	1.19309	0	0	1.16257	-0.349916	-0.0453144	1.44858	1.5708	0	0
93.69	3.12876	0.936918	-1.54671	0.685879	0.192949	0.546514	0.640978	-0.538418	-0.0122506	2.0944	0.523599	0	0	0.728182	-0.566085	-5.06036e-05	2.0944	0.435594	0	0	-1.50689	-0.0194755	-0.00649132	1.19117	-0.595611	0.130335	1.24322	1.20382	0	0	1.15207	-0.358426	-0.0486874	1.46819	1.5708	0	0
93.7	3.13095	0.953167	-1.54494	0.663392	0.19445	0.552038	0.661222	-0.529992	-0.0160774	2.0944	0.523599	0	0	0.753837	-0.563033	0.00453377	2.0944	0.434253	0	0	-1.47967	-0.0211943	-0.00144506	1.191	-0.590233	0.139729	1.21259	1.21424	0	0	1.15321	-0.351623	-0.0350526	1.43644	1.5708	0	0
93.71	3.12572	1.00531	-1.53763	0.663335	0.197544	0.551883	0.716461	-0.52709	-0.0181087	2.0944	0.523599	0	0	0.813705	-0.561052	0.0109229	2.0944	0.432673	0	0	-1.43413	-0.017487	-0.00576792	1.18185	-0.583889	0.139875	1.21981	1.22753	0	0	1.134	-0.360491	-0.0419283	1.45801	1.5708	0	0
93.72	3.12569	1.0253	-1.53583	0.663211	0.197609	0.554386	0.736632	-0.525776	-0.0197334	2.0944	0.523599	0	0	0.834188	-0.557794	0.00963149	2.0944	0.425669	0	0	-1.41285	-0.0171636	-0.0069285	1.17795	-0.580862	0.141002	1.21155	1.24112	0	0	1.12742	-0.359705	-0.0403111	1.4533	1.5708	0	0
93.73	3.11269	1.07432	-1.52489	0.661358	0.197689	0.555949	0.804896	-0.516497	-0.00965336	2.0944	0.523599	0	0	0.890385	-0.551429	0.0110883	2.0944	0.425658	0	0	-1.36256	-0.0135846	0.00950572	1.16462	-0.592843	0.141212	1.20723	1.25656	0	0	1.11848	-0.370736	0.106864	1.42654	1.32461	0	0
93.74	3.12254	1.08863	-1.53271	0.661688	0.197621	0.559043	0.819146	-0.516133	-0.00563052	2.0944	0.523599	0	0	0.900772	-0.546368	0.00316084	2.0944	0.416288	0	0	-1.35077	-0.0167744	-0.00735568	1.16447	-0.578157	0.143476	1.20177	1.27031	0	0	1.1061	-0.364662	0.00810243	1.44287	1.37087	0	0
93.75	3.11573	1.13179	-1.52691	0.662218	0.199116	0.559626	0.865991	-0.506554	-0.00174984	2.0944	0.523599	0	0	0.948665	-0.54392	0.0076547	2.0944	0.417107	0	0	-1.30275	-0.0173818	-0.00719147	1.14343	-0.572577	0.139686	1.19744	1.28493	0	0	1.08329	-0.364735	-0.00549738	1.43698	1.43428	0	0
93.76	3.11761	1.14044	-1.52722	0.661919	0.198806	0.563911	0.869909	-0.505409	-0.00583298	2.0944	0.523599	0	0	0.953306	-0.542124	0.000538192	2.0944	0.402426	0	0	-1.29023	-0.0171614	0.00337298	1.12936	-0.582327	0.126478	1.20452	1.29828	0	0	1.08878	-0.369238	0.110956	1.41269	1.2302	0	0
93.77	3.11963	1.16303	-1.53022	0.66243	0.199175	0.566315	0.894394	-0.500058	-0.0023816	2.0944	0.522973	0	0	0.974135	-0.539502	-0.00220005	2.0944	0.396697	0	0	-1.26843	-0.021051	-0.0062122	1.11975	-0.572513	0.122037	1.20642	1.31287	0	0	1.0734	-0.380167	0.0472053	1.43039	1.27399	0	0
93.78	3.11508	1.18124	-1.52614	0.662198	0.199404	0.56974	0.910444	-0.496145	-0.00542939	2.0944	0.522096	0	0	0.990229	-0.5388	-0.00495303	2.0944	0.388567	0	0	-1.24515	-0.0204483	0.00542568	1.10179	-0.580987	0.108842	1.21396	1.3274	0	0	1.06658	-0.368993	0.116758	1.41416	1.12104	0	0
93.79	3.11057	1.20283	-1.52234	0.662352	0.200444	0.572078	0.931847	-0.492803	-0.00313392	2.0944	0.516901	0	0	1.01082	-0.539309	-0.00282922	2.0944	0.385549	0	0	-1.21911	-0.0212184	0.00782862	1.08408	-0.580699	0.0967289	1.2211	1.34188	0	0	1.05033	-0.370113	0.121451	1.41976	1.01816	0	0
93.8	3.11578	1.22095	-1.52722	0.660984	0.199879	0.576549	0.956782	-0.486513	0.00310729	2.0944	0.499963	0	0	1.02223	-0.530873	-0.0135496	2.0944	0.378796	0	0	-1.2032	-0.0206599	0.00534825	1.07572	-0.580354	0.0890173	1.22916	1.35528	0	0	1.03804	-0.368829	0.116887	1.42956	0.952582	0	0
93.81	3.10893	1.22561	-1.51922	0.662274	0.200618	0.579645	0.948769	-0.487262	-0.00804597	2.0944	0.500442	0	0	1.02486	-0.535792	-0.0131583	2.0944	0.373367	0	0	-1.19389	-0.0211137	0.00770033	1.06277	-0.578384	0.0769977	1.23794	1.36781	0	0	1.02583	-0.368909	0.110716	1.44029	0.909546	0	0
93.82	3.11286	1.24163	-1.5243	0.660844	0.200128	0.584006	0.97152	-0.481313	-0.00231684	2.0944	0.483777	0	0	1.03275	-0.528552	-0.0243541	2.0944	0.369377	0	0	-1.17987	-0.0207029	0.0059561	1.0559	-0.578805	0.0693414	1.24734	1.37952	0	0	1.01204	-0.366933	0.10131	1.45219	0.880874	0	0
93.83	3.11174	1.252	-1.52359	0.66072	0.200314	0.587548	0.979303	-0.479578	-0.00445112	2.0944	0.476153	0	0	1.03734	-0.527643	-0.0301238	2.0944	0.366651	0	0	-1.16749	-0.0210963	0.00608356	1.04542	-0.578491	0.060284	1.25791	1.39117	0	0	0.998506	-0.367354	0.0936476	1.46433	0.863186	0	0
93.84	3.11651	1.26159	-1.52784	0.661405	0.200695	0.590595	0.989378	-0.47646	-0.00931883	2.0944	0.467398	0	0	1.04013	-0.528151	-0.0342674	2.09107	0.364988	0	0	-1.1546	-0.0236658	0.00536756	1.03429	-0.573829	0.0155994	1.26827	1.5708	0	0	0.985444	-0.368785	0.0874577	1.47839	0.837308	0	0
93.85	3.11103	1.27105	-1.52302	0.661421	0.199941	0.597364	0.982935	-0.471306	-0.0212379	2.08129	0.460505	0	0	1.03152	-0.525306	-0.0459458	2.06792	0.361478	0	0	-1.14949	-0.0239816	0.0070568	1.02648	-0.574305	0.0107748	1.27739	1.5708	0	0	0.975373	-0.369131	0.081273	1.48925	0.83958	0	0
93.86	3.10475	1.27818	-1.51764	0.661483	0.199278	0.604379	0.972655	-0.466708	-0.0342197	2.05807	0.454069	0	0	1.02015	-0.52387	-0.0578178	2.04463	0.357559	0	0	-1.1464	-0.0244126	0.00937926	1.01906	-0.574282	0.0041399	1.2864	1.5708	0	0	0.965561	-0.368695	0.0748437	1.49989	0.843076	0	0
93.87	-3.06053	1.26843	-1.6534	0.66397	0.199028	0.61557	0.967083	-0.471729	0.0016296	2.0344	0.447763	0	0	0.939313	-0.518791	-0.137731	2.00102	0.359372	0	0	-1.1648	-0.0654197	-0.0118129	1.00546	-0.567543	-0.0148356	1.29792	1.5708	0	0	0.962791	-0.370659	0.0734641	1.5087	0.845577	0	0
93.88	3.09071	1.29367	-1.50301	0.661137	0.198394	0.61754	0.953141	-0.463153	-0.0621	2.01284	0.442828	0	0	1.00237	-0.519299	-0.0788981	2.00065	0.349401	0	0	-1.13654	-0.0223278	0.014906	1.00199	-0.573924	-0.0109076	1.30509	1.5708	0	0	0.944698	-0.362459	0.0606867	1.51911	0.845906	0	0
93.89	3.08401	1.30208	-1.49548	0.6608	0.198105	0.623687	0.944549	-0.463864	-0.0767298	1.991	0.438233	0	0	0.994838	-0.516785	-0.0891084	1.97949	0.345707	0	0	-1.1301	-0.0205957	0.0178566	0.992007	-0.573454	-0.0199394	1.31485	1.5708	0	0	0.933433	-0.35694	0.051494	1.52839	0.850946	0	0
93.9	3.07933	1.30852	-1.49056	0.660556	0.19784	0.630034	0.933016	-0.46551	-0.0921953	1.96833	0.435161	0	0	0.984031	-0.515662	-0.100279	1.9579	0.341619	0	0	-1.12596	-0.0197557	0.020811	0.981364	-0.572772	-0.0307859	1.32634	1.5708	0	0	0.922455	-0.350452	0.0408342	1.53822	0.858114	0	0
93.91	3.07627	1.31358	-1.48801	0.660439	0.197596	0.636413	0.919116	-0.468032	-0.10868	1.94493	0.4344	0	0	0.971422	-0.516125	-0.111765	1.93649	0.336821	0	0	-1.12301	-0.0200323	0.024124	0.970596	-0.573328	-0.0408049	1.33837	1.5708	0	0	0.912304	-0.343652	0.0301741	1.54741	0.873676	0	0
93.92	3.07503	1.31903	-1.48801	0.660461	0.197414	0.64254	0.905137	-0.470988	-0.12525	1.92116	0.435944	0	0	0.959672	-0.517744	-0.123157	1.91599	0.33094	0	0	-1.119	-0.0215818	0.027464	0.959654	-0.574531	-0.0504672	1.35014	1.5708	0	0	0.902576	-0.33837	0.0223825	1.55676	0.879263	0	0
93.93	3.07415	1.3251	-1.48886	0.660539	0.197333	0.648439	0.890872	-0.473725	-0.141733	1.89685	0.439549	0	0	0.949593	-0.520308	-0.134173	1.89661	0.323438	0	0	-1.11373	-0.0236632	0.0308845	0.949022	-0.576342	-0.0591046	1.36245	1.5708	0	0	0.892673	-0.333939	0.015548	1.56614	0.88703	0	0
93.94	3.0736	1.33187	-1.49045	0.660741	0.19734	0.654137	0.877041	-0.475855	-0.156986	1.87244	0.444421	0	0	0.941167	-0.523566	-0.144791	1.87815	0.31441	0	0	-1.1072	-0.0263316	0.0341766	0.939069	-0.578316	-0.0659402	1.37483	1.5708	0	0	0.882542	-0.330389	0.0090932	1.57591	0.895655	0	0
